PathFileType	4	(X/Y/Z)	/Users/niels/Desktop/University/Third Semester/Perception and Action/Exam/Gymnastics Motion Tracking/Code for Gym Tracking/Analyzed Data/Webcam_Backflip/id7_1_baseline_Sports2D/id7_1_baseline_Sports2D_px_person00.trc
DataRate	CameraRate	NumFrames	NumMarkers	Units	OrigDataRate	OrigDataStartFrame	OrigNumFrames
29.708737864077673	29.708737864077673	10	22	m	29.708737864077673	12	103
Frame#	Time	Hip			RHip			RKnee			RAnkle			RBigToe			RSmallToe			RHeel			LHip			LKnee			LAnkle			LBigToe			LSmallToe			LHeel			Neck			Head			Nose			RShoulder			RElbow			RWrist			LShoulder			LElbow			LWrist		
		X1	Y1	Z1	X2	Y2	Z2	X3	Y3	Z3	X4	Y4	Z4	X5	Y5	Z5	X6	Y6	Z6	X7	Y7	Z7	X8	Y8	Z8	X9	Y9	Z9	X10	Y10	Z10	X11	Y11	Z11	X12	Y12	Z12	X13	Y13	Z13	X14	Y14	Z14	X15	Y15	Z15	X16	Y16	Z16	X17	Y17	Z17	X18	Y18	Z18	X19	Y19	Z19	X20	Y20	Z20	X21	Y21	Z21	X22	Y22	Z22
12	0.403921568627451	0.8888240268318952	-0.4805216096782653	0.0	0.8784791406827724	-0.4762113747594069	0.0	0.8835329378874436	-0.7215122546956595	0.0	0.8346252207477934	-0.9617243391631578	0.0	0.9369056239123894	-1.0098578940245215	0.0	0.9132483355054949	-1.024447674195075	0.0	0.8084246751885302	-0.9914339069147085	0.0	0.8982159163173297	-0.47610140069667956	0.0	0.8939226417254638	-0.7063365830126369	0.0	0.8659640783063144	-0.909992226452094	0.0	0.9633736628550421	-0.947888617403536	0.0	0.9523934804607721	-0.9368464637204347	0.0	0.8451968340169509	-0.9352200416005297	0.0	0.9001824584731712	-0.12291858614967396	0.0	0.9602616995539056	0.02484585936044913	0.0	0.9619878810926986	-0.06144793484962377	0.0	0.8516003648211182	-0.16595837787753165	0.0	0.7739070047071995	-0.3354907310013483	0.0	0.7122454421088931	-0.48933466084181504	0.0	0.9021967605358671	-0.16827776425654298	0.0	0.8206818897115679	-0.33408391533048193	0.0	0.7510266824621542	-0.4699301986376569	0.0
13	0.43758169934640523	0.8904883074434137	-0.4790916641408382	0.0	0.8818745345104032	-0.47405777420325734	0.0	0.8877613622877949	-0.719896410181601	0.0	0.8368825939675391	-0.9595369685067301	0.0	0.9367578161352238	-1.0106387448791865	0.0	0.9128469565884713	-1.0251481001898557	0.0	0.8101822096506274	-0.9884558174262741	0.0	0.8990534977234448	-0.47504114483055687	0.0	0.8952888065001422	-0.7047438496540621	0.0	0.8650128075575447	-0.9104274264148363	0.0	0.9627025651694405	-0.9493145138123947	0.0	0.9530802399465119	-0.9377751336059381	0.0	0.8426885913707519	-0.9371958480948049	0.0	0.903142421415476	-0.12412494060672997	0.0	0.9634757141351491	0.02330833281820284	0.0	0.963380714257318	-0.06248575689081338	0.0	0.8532294575973254	-0.16339023489910864	0.0	0.7664171541736914	-0.3259530389318395	0.0	0.6945243564923138	-0.47322303615450817	0.0	0.9053003533754075	-0.1681826512178317	0.0	0.8113744986968127	-0.3311598291070545	0.0	0.718425049935088	-0.4627749806282224	0.0
14	0.47124183006535947	0.8919987961535764	-0.4778257436449013	0.0	0.8846562217293236	-0.4721680208765351	0.0	0.8917457070961856	-0.7179862347448728	0.0	0.839685763600369	-0.9571002021094002	0.0	0.9373011063568872	-1.010870281507729	0.0	0.913349134782249	-1.0248583066729373	0.0	0.8123591383649169	-0.9850255915051886	0.0	0.9000749683705542	-0.4743389546181632	0.0	0.8968232800301249	-0.7036099413640355	0.0	0.8637282808289912	-0.9112135488542166	0.0	0.9615138266701457	-0.9510784854952434	0.0	0.9524862955152082	-0.9388941508465846	0.0	0.839378354503481	-0.9394927361587434	0.0	0.9056798736112637	-0.1254075641494617	0.0	0.9657935278088364	0.02173103727046475	0.0	0.9645569275449927	-0.06362547653029604	0.0	0.8544316932124626	-0.16102042852692494	0.0	0.7615281899156802	-0.3169459144793538	0.0	0.6826800536434665	-0.4580690421024401	0.0	0.9086684300907839	-0.16820492304559403	0.0	0.8056582152071826	-0.32823167821913496	0.0	0.6984855217184083	-0.4556839209127775	0.0
15	0.5049019607843137	0.8933087588578987	-0.4766241479507121	0.0	0.8868172015274535	-0.47058633812455686	0.0	0.8956838088387552	-0.7157067447754493	0.0	0.8429754432014629	-0.9544727330959646	0.0	0.9386765234366203	-1.009937843293531	0.0	0.9149905245361911	-1.0232230359227554	0.0	0.8151052145727481	-0.9814288205835237	0.0	0.9011214236517856	-0.4738496578483856	0.0	0.8982232649712627	-0.7025677402849059	0.0	0.8622486792300177	-0.911967090163854	0.0	0.9600973187191465	-0.9526348147112744	0.0	0.9505745779795798	-0.9400479079820742	0.0	0.8353442619737592	-0.9416562832037386	0.0	0.9077582602532925	-0.12673831401498328	0.0	0.9674645152384668	0.020176382879431725	0.0	0.9656731176873437	-0.06502370591917159	0.0	0.8553400411694335	-0.15910557137146583	0.0	0.7590246305946423	-0.3093500685135394	0.0	0.6755980455553013	-0.44524107673011887	0.0	0.9117791777788465	-0.16839690542809027	0.0	0.8028403429350817	-0.32570745474307505	0.0	0.6937047447339989	-0.44942138565933387	0.0
16	0.538562091503268	0.8944749834892646	-0.4755067790725492	0.0	0.8884332692723385	-0.4694102555811548	0.0	0.8996542133553403	-0.713252275886158	0.0	0.8466619213671867	-0.951670925928577	0.0	0.9410227001410519	-1.0073967195400897	0.0	0.917777151515148	-1.0200294360962976	0.0	0.8184204435882548	-0.977800403040066	0.0	0.9022150512110634	-0.47350128782982004	0.0	0.899362640215997	-0.7014781660726375	0.0	0.8608979454670075	-0.9123379009212723	0.0	0.9589317425382186	-0.953585540364875	0.0	0.9479453498592578	-0.9411016505001271	0.0	0.8313308265276258	-0.9432464297295532	0.0	0.9094496292883234	-0.1280298601621906	0.0	0.9687725032860726	0.018707207348806338	0.0	0.9668047351893503	-0.0665525504814636	0.0	0.856033214595111	-0.1577541951247463	0.0	0.7582719542929575	-0.3036487469696851	0.0	0.6720276638560302	-0.4355387462214053	0.0	0.9144354320623583	-0.1688298256460803	0.0	0.8021815727736983	-0.3238941638667693	0.0	0.7063460259106973	-0.44462304503542394	0.0
17	0.5722222222222222	0.8956224487488992	-0.47460588993370845	0.0	0.8896177310299507	-0.4687038313368131	0.0	0.9035368897083961	-0.7109854981429816	0.0	0.8505720678317364	-0.9487131002161594	0.0	0.9444415913628066	-1.00317030715764	0.0	0.9215888560555621	-1.015337557848475	0.0	0.8221669786951672	-0.9742119830723986	0.0	0.9035155377694316	-0.4732833200407039	0.0	0.9003122465005007	-0.7004240006733279	0.0	0.8600335895663439	-0.9120319029188553	0.0	0.9584334323863261	-0.9536993282401653	0.0	0.945466686851557	-0.9417850955048709	0.0	0.8282836388815841	-0.9438106635417758	0.0	0.9107878318576159	-0.1291488301963547	0.0	0.9699596286511083	0.01736007030954442	0.0	0.9679582018054153	-0.06795648774357758	0.0	0.8565199268175133	-0.1569262990281113	0.0	0.7584322618409256	-0.29979943065670966	0.0	0.670689677668811	-0.42894951650882424	0.0	0.9165712989706098	-0.16950483533684377	0.0	0.8029432651474251	-0.3229165125576072	0.0	0.7377150474212337	-0.4415625331781013	0.0
18	0.6058823529411764	0.8968659798573839	-0.4739919656389252	0.0	0.8905365587211803	-0.4683427895229695	0.0	0.9070496560675648	-0.7091011817150771	0.0	0.8544271638917041	-0.9457265904632867	0.0	0.9488300971108328	-0.9976744331813382	0.0	0.9261901473966344	-1.0095889755934635	0.0	0.8260962582753422	-0.97082218822604	0.0	0.9051628786818277	-0.4731470676888242	0.0	0.9012406678106915	-0.699416133311063	0.0	0.8598475996803058	-0.9109121834403849	0.0	0.9587521517398101	-0.952910624858014	0.0	0.9438169376221539	-0.9417672106537316	0.0	0.8267684106242009	-0.9431326652733977	0.0	0.9117663026606766	-0.12997217494767344	0.0	0.9711862671283126	0.01616357636515472	0.0	0.9691120744721735	-0.06902244513518534	0.0	0.8568306770681734	-0.1564824050803133	0.0	0.7587677979580708	-0.29729909658842246	0.0	0.6703173018531035	-0.4247292587929781	0.0	0.9181140528490283	-0.17030278595911	0.0	0.8043330670546551	-0.322605393643258	0.0	0.7850469216380654	-0.4399556285996619	0.0
19	0.6395424836601307	0.8982473901708107	-0.47354479821833106	0.0	0.8914241880474619	-0.4680136992985119	0.0	0.9097922785063377	-0.7074613768305227	0.0	0.8578992552122147	-0.9430381677877099	0.0	0.9537280303863549	-0.9918347601121598	0.0	0.9310972953450655	-1.0036369122777127	0.0	0.829872914263611	-0.96796856558574	0.0	0.9071504109763806	-0.4729639664790764	0.0	0.9022925194172209	-0.6982924675128254	0.0	0.8602902030997794	-0.9092089677032241	0.0	0.9597433362575994	-0.9515242753068085	0.0	0.9432666029017918	-0.9411024227512171	0.0	0.8267978301051665	-0.9415768342845158	0.0	0.9124348634156401	-0.13044949464034666	0.0	0.9725313142025158	0.01519162648178958	0.0	0.97021291727621	-0.069681657453311	0.0	0.8571130331285359	-0.15625727820087215	0.0	0.7588075171026089	-0.2954157235680809	0.0	0.6697050904165198	-0.42174362501743135	0.0	0.9189691811195844	-0.17100462108945816	0.0	0.8055025381276066	-0.3224820148959475	0.0	0.8385475777899808	-0.4390205712068343	0.0
20	0.6732026143790849	0.899698317349604	-0.47304852022377963	0.0	0.892482784120921	-0.467399426858029	0.0	0.911311810148791	-0.7058523933882982	0.0	0.8606676218373815	-0.9410756998525496	0.0	0.9584098576161979	-0.9867098503698493	0.0	0.9356034280650138	-0.9984623658444962	0.0	0.8330937231745286	-0.9660835864858967	0.0	0.909239865280871	-0.47262210351836553	0.0	0.9035642575631597	-0.6969727125366445	0.0	0.8611372197399333	-0.9075849871803748	0.0	0.961069590032863	-0.950254792664898	0.0	0.9437437577070628	-0.9403919828475744	0.0	0.8279963671885446	-0.9400300445938732	0.0	0.9129208031341778	-0.13059449674441712	0.0	0.9740127498078086	0.014531940504499305	0.0	0.9712215487053103	-0.07002628132057002	0.0	0.8576260826690376	-0.15608795515400525	0.0	0.7583311174834154	-0.2934178359314626	0.0	0.667866388452051	-0.41881177837237904	0.0	0.9190867181692479	-0.171341341004373	0.0	0.8056353073616086	-0.32188683944752144	0.0	0.8843089741825916	-0.43773293668242436	0.0
21	0.7068627450980391	0.9010899179967647	-0.472366537598428	0.0	0.8937529042391196	-0.46637528969573055	0.0	0.911350898124996	-0.7043018317094921	0.0	0.8624692350166154	-0.9401056566128277	0.0	0.9622054142603284	-0.9829029705342414	0.0	0.9390905274284275	-0.9946564036646761	0.0	0.8353747790714352	-0.9654357301861716	0.0	0.9110489079699278	-0.47209114945264435	0.0	0.9050563036541085	-0.6956819996899437	0.0	0.8620910449361864	-0.9067971659660204	0.0	0.9623373213040229	-0.9498133728568088	0.0	0.9449856410445081	-0.9403199433446323	0.0	0.8298208533074487	-0.9393739606862973	0.0	0.9133517660046399	-0.1304324055235397	0.0	0.9756177810458797	0.014215261061482864	0.0	0.972193358782992	-0.07025069078819426	0.0	0.8586356938206695	-0.15576380813124743	0.0	0.7573080074530324	-0.2906988264639174	0.0	0.6642712032162517	-0.41496447684878723	0.0	0.9185816412496087	-0.17108021602633008	0.0	0.8041918790314914	-0.32014998277501816	0.0	0.9117654517945956	-0.4351092431570686	0.0
